# This file uses centimeters as units for non-parametric coordinates.

mtllib Background_Hills_Pines.mtl
g default
v -16.705357 0.000000 -0.000000
v 16.705357 0.000000 -0.000000
v -16.705357 8.352679 0.000000
v 16.705357 8.352679 0.000000
vt 0.000000 0.000000
vt 1.000000 0.000000
vt 0.000000 1.000000
vt 1.000000 1.000000
vn 0.000000 -0.000000 1.000000
vn 0.000000 -0.000000 1.000000
vn 0.000000 -0.000000 1.000000
vn 0.000000 -0.000000 1.000000
s off
g Background_Hills_Pines
usemtl initialShadingGroup
f 1/1/1 2/2/2 4/4/3 3/3/4
